<svg width="29" height="29" viewBox="0 0 29 29" fill="none" xmlns="http://www.w3.org/2000/svg">
<g clip-path="url(#clip0_53_49)">
<path d="M20.1379 15.7308C16.0814 15.7308 12.7928 14.0866 12.7928 12.0583C12.7928 10.0301 16.0814 8.3858 20.1379 8.3858C24.1944 8.3858 27.4829 10.0301 27.4829 12.0583C27.4829 14.0866 24.1944 15.7308 20.1379 15.7308Z" stroke="#0033A1" stroke-width="2.1" stroke-linecap="round" stroke-linejoin="round"/>
<path d="M12.7928 17.9343C12.7928 19.9626 16.0814 21.6068 20.1379 21.6068C24.1944 21.6068 27.4829 19.9626 27.4829 17.9343" stroke="#0033A1" stroke-width="2.1" stroke-linecap="round" stroke-linejoin="round"/>
<path d="M1.04089 10.5893C1.04089 12.6175 4.32942 14.2618 8.38591 14.2618C10.0398 14.2618 11.5659 13.9886 12.7937 13.5273" stroke="#0033A1" stroke-width="2.1" stroke-linecap="round" stroke-linejoin="round"/>
<path d="M1.04089 15.7308C1.04089 17.7591 4.32942 19.4033 8.38592 19.4033C10.0394 19.4033 11.5653 19.1301 12.7929 18.6692" stroke="#0033A1" stroke-width="2.1" stroke-linecap="round" stroke-linejoin="round"/>
<path d="M1.04089 4.7132V20.8723C1.04089 22.9006 4.32942 24.5448 8.38592 24.5448C10.0395 24.5448 11.5653 24.2714 12.7929 23.8103" stroke="#0033A1" stroke-width="2.1" stroke-linecap="round" stroke-linejoin="round"/>
<path d="M15.731 9.12021V4.7132" stroke="#0033A1" stroke-width="2.1" stroke-linecap="round" stroke-linejoin="round"/>
<path d="M12.7928 12.0583V23.8105C12.7928 25.8387 16.0814 27.483 20.1379 27.483C24.1944 27.483 27.4829 25.8387 27.4829 23.8105V12.0583" stroke="#0033A1" stroke-width="2.1" stroke-linecap="round" stroke-linejoin="round"/>
<path d="M8.38591 8.38573C4.32933 8.38573 1.04089 6.74147 1.04089 4.71322C1.04089 2.68497 4.32942 1.04071 8.38591 1.04071C12.4424 1.04071 15.7309 2.68497 15.7309 4.71322C15.7309 6.74147 12.4424 8.38573 8.38591 8.38573Z" stroke="#0033A1" stroke-width="2.1" stroke-linecap="round" stroke-linejoin="round"/>
</g>
<defs>
<clipPath id="clip0_53_49">
<rect width="28.5236" height="28.5236" fill="white"/>
</clipPath>
</defs>
</svg>
