<svg preserveAspectRatio="none" width="100%" height="100%" overflow="visible" style="display: block;" viewBox="0 0 133.411 23.514" fill="none" xmlns="http://www.w3.org/2000/svg">
<g id="5 stars" clip-path="url(#clip0_0_133)">
<path id="Vector" d="M8.15238 7.09877L11.367 0.623429C11.7796 -0.20781 12.9719 -0.20781 13.3845 0.623429L16.5991 7.09869L23.7881 8.14349C24.7105 8.27752 25.0781 9.40484 24.4104 10.0515L19.2093 15.0883L20.4368 22.204C20.5945 23.1178 19.6298 23.8145 18.8044 23.383L12.3758 20.0217L5.94715 23.383C5.12181 23.8146 4.1571 23.1178 4.31479 22.204L5.54223 15.0883L0.341241 10.0515C-0.326495 9.40484 0.0411235 8.27752 0.963439 8.14349L8.15238 7.09877Z" fill="var(--fill-0, #0055B8)"/>
<path id="Vector_2" d="M35.3171 7.09882L38.5317 0.623478C38.9443 -0.20776 40.1366 -0.20776 40.5492 0.623478L43.7638 7.09874L50.9528 8.14354C51.8752 8.27757 52.2428 9.40489 51.5751 10.0516L46.374 15.0884L47.6015 22.204C47.7592 23.1179 46.7945 23.8146 45.9691 23.3831L39.5405 20.0217L33.1119 23.3831C32.2865 23.8147 31.3218 23.1179 31.4795 22.204L32.7069 15.0884L27.506 10.0516C26.8383 9.40489 27.2059 8.27757 28.1282 8.14354L35.3171 7.09882Z" fill="var(--fill-0, #0055B8)"/>
<path id="Vector_3" d="M62.482 7.09874L65.6967 0.623478C66.1093 -0.20776 67.3016 -0.20776 67.7142 0.623478L70.9288 7.09874L78.1178 8.14354C79.0402 8.27757 79.4077 9.40489 78.7401 10.0516L73.539 15.0884L74.7664 22.204C74.9241 23.1179 73.9594 23.8146 73.1341 23.3831L66.7055 20.0217L60.2768 23.3831C59.4515 23.8147 58.4868 23.1179 58.6445 22.204L59.8719 15.0884L54.671 10.0516C54.0032 9.40489 54.3709 8.27757 55.2932 8.14354L62.482 7.09874Z" fill="var(--fill-0, #0055B8)"/>
<path id="Vector_4" d="M89.6471 7.09874L92.8618 0.623478C93.2744 -0.20776 94.4667 -0.20776 94.8793 0.623478L98.0938 7.09874L105.283 8.14354C106.205 8.27757 106.573 9.40489 105.905 10.0516L100.704 15.0884L101.932 22.204C102.089 23.1179 101.124 23.8146 100.299 23.3831L93.8706 20.0217L87.4419 23.3831C86.6165 23.8147 85.6518 23.1179 85.8095 22.204L87.037 15.0884L81.8361 10.0516C81.1683 9.40489 81.5359 8.27757 82.4583 8.14354L89.6471 7.09874Z" fill="var(--fill-0, #0055B8)"/>
<path id="Vector_5" d="M116.812 7.09874L120.026 0.623478C120.439 -0.20776 121.631 -0.20776 122.044 0.623478L125.259 7.09874L132.448 8.14354C133.37 8.27757 133.738 9.40489 133.07 10.0516L127.869 15.0884L129.096 22.204C129.254 23.1179 128.289 23.8146 127.464 23.3831L121.035 20.0217L114.607 23.3831C113.781 23.8147 112.817 23.1179 112.974 22.204L114.202 15.0884L109.001 10.0516C108.333 9.40489 108.701 8.27757 109.623 8.14354L116.812 7.09874Z" fill="var(--fill-0, #0055B8)"/>
</g>
<defs>
<clipPath id="clip0_0_133">
<rect width="133.411" height="23.514" fill="white"/>
</clipPath>
</defs>
</svg>
