<svg width="75" height="60" viewBox="0 0 75 60" fill="none" xmlns="http://www.w3.org/2000/svg">
<g clip-path="url(#clip0_144_241)">
<path d="M35.8783 0.033716C36.9674 -0.064544 38.4243 0.069926 39.5159 0.206776C43.5794 0.716351 46.7474 2.3889 49.789 5.07932C49.2949 5.62825 48.4227 6.43881 47.8774 6.98187L44.3133 10.5661C42.7531 9.23896 41.3363 8.37426 39.3087 7.90888C36.3407 7.25158 33.2335 7.7892 30.6589 9.40548C27.9824 11.0991 26.0871 13.7852 25.3889 16.8746C24.6923 19.9514 25.2443 23.179 26.9241 25.8495C28.6078 28.5336 31.2959 30.4321 34.3885 31.1214C37.542 31.7872 40.8307 31.1805 43.5389 29.4333C45.63 28.0746 46.8698 25.8786 47.3705 23.4759C43.9432 23.3785 40.1867 23.451 36.7392 23.46C36.7442 20.9385 36.6966 18.3698 36.7399 15.8563L43.3203 15.8523C47.1811 15.8524 51.2324 15.7869 55.0758 15.8675C55.2602 16.6158 55.3614 17.9424 55.415 18.7095C55.7776 23.8929 54.2918 29.0995 50.8369 33.0348C47.6924 36.6164 43.2565 38.6553 38.5218 38.936C32.8608 39.2718 28.1128 37.8806 23.8457 34.1235C19.9816 30.715 17.6215 25.9171 17.2804 20.7758C16.9409 15.5408 18.7253 10.3898 22.2305 6.48675C25.7913 2.47296 30.5616 0.350936 35.8783 0.033716Z" fill="white"/>
<path d="M67.6982 46.4941C67.9122 46.4946 68.0131 46.5866 68.1197 46.7612C68.4107 47.2372 68.6518 47.7715 68.8977 48.2714C69.2599 49.0075 69.6317 49.7392 70.0128 50.4659C70.645 50.5397 74.2612 50.8603 74.3815 51.3906C74.2623 51.8887 73.5073 52.5081 73.1284 52.8827C72.548 53.4563 71.9562 54.0718 71.3375 54.6009C71.4825 55.2567 72.1242 58.6446 71.9627 59.0543C71.9435 59.1031 71.9427 59.1037 71.8923 59.1194C71.4332 59.2638 68.5118 57.5879 67.9055 57.2756C67.3556 57.1523 64.2412 59.4655 63.6181 59.0478C63.5456 58.9268 63.5248 58.744 63.551 58.6092C63.8064 57.2934 64.002 55.916 64.2472 54.6026C63.5823 54.0603 62.9746 53.3886 62.3639 52.783C62.0439 52.4656 61.6845 52.1713 61.3874 51.8339C61.3115 51.7479 61.2178 51.6332 61.2017 51.5148C61.1888 51.4207 61.2276 51.284 61.2898 51.2101C61.5053 50.9543 64.9982 50.5486 65.5719 50.4692C66.0226 49.6516 67.1605 47.0097 67.6982 46.4941Z" fill="white"/>
<path d="M6.48528 46.4758C6.52965 46.4804 6.56127 46.4821 6.60547 46.4948C7.00871 46.6101 8.47615 49.9215 8.81428 50.4766C9.55463 50.5734 12.5465 50.9208 13.0854 51.1914C13.1603 51.2869 13.1766 51.3068 13.1626 51.4357C13.1033 51.9823 10.6508 54.1197 10.1324 54.59C10.253 55.3235 10.9271 58.6164 10.6739 59.0861C10.2202 59.2935 7.15754 57.5261 6.62935 57.1859C5.94706 57.4755 2.90117 59.3645 2.42721 59.0534C2.22941 58.4862 2.92233 55.4361 3.0098 54.6115L3.01405 54.5683C2.49648 54.1133 -0.112591 51.8366 0.00377447 51.2882C0.466259 50.8381 3.63914 50.562 4.35382 50.5262C4.68124 49.7315 5.99695 46.9947 6.48528 46.4758Z" fill="white"/>
<path d="M21.8079 46.48C21.8682 46.4849 21.9317 46.4893 21.9883 46.5135C22.3739 46.6785 23.851 49.9081 24.1349 50.4954C25.0823 50.5558 27.8104 50.863 28.5876 51.3478C28.2685 52.1179 26.1902 53.9337 25.4694 54.6288C25.6171 55.2777 26.2648 58.3949 26.0751 58.9094C26.0464 58.9872 25.9915 59.0557 25.9131 59.0855C25.7764 59.1373 25.6381 59.1091 25.5029 59.064C25.0724 58.9199 24.6426 58.6414 24.2429 58.4272C23.4759 58.0141 22.7058 57.607 21.9327 57.2059C21.2958 57.3913 18.2551 59.4919 17.774 59.0426C17.6395 58.4978 18.2524 55.3009 18.4098 54.6204C18.1939 54.4446 17.785 54.0863 17.5955 53.8817C17.157 53.4084 15.2382 51.8567 15.3584 51.2431C15.666 50.95 19.0996 50.5543 19.7519 50.4474C20.1422 49.6356 21.3476 46.9991 21.8079 46.48Z" fill="white"/>
<path d="M52.5305 46.4753C52.5736 46.4821 52.5955 46.484 52.6396 46.4981C53.1326 46.6553 54.522 49.8589 54.8649 50.4896C55.4549 50.5285 59.0608 50.9256 59.2221 51.3507C59.1978 51.5175 59.1349 51.6838 59.0205 51.8088C58.1424 52.7687 57.1651 53.7241 56.2007 54.5885C56.262 55.1856 57.1091 58.8887 56.6518 59.1124C56.0024 59.103 53.4486 57.6169 52.6797 57.204C51.9909 57.476 49.209 59.1614 48.7442 59.1109C48.67 59.1029 48.6048 59.0781 48.5577 59.0203C48.4462 58.8832 48.4434 58.7008 48.4469 58.5314C48.4589 57.9451 48.6266 57.3197 48.7326 56.7425C48.8648 56.0234 48.9764 55.3017 49.0958 54.5806C48.655 54.2307 45.8651 51.7517 46.0595 51.2472C46.5183 50.9356 49.7814 50.5313 50.4379 50.4879C50.8216 49.6868 52.0165 47.0802 52.5305 46.4753Z" fill="white"/>
<path d="M37.3409 46.4849C37.8269 46.7047 38.1849 47.6587 38.4244 48.1411C38.8096 48.9286 39.2053 49.711 39.6116 50.4879C40.2621 50.5692 43.5683 50.8905 43.9355 51.2558C43.9832 51.3033 43.9929 51.341 43.9826 51.41C43.9027 51.9491 41.4754 54.0986 40.9284 54.5944C41.0173 55.4192 41.7265 58.4937 41.5004 59.0802C41.1751 59.3305 40.1295 58.6414 39.7972 58.4632C39.0081 58.0401 38.1629 57.6581 37.4021 57.1927C36.7319 57.5661 34.0265 59.1079 33.4692 59.1118C33.3469 59.1127 33.3057 59.0911 33.2261 59.0029C33.0739 58.4246 33.6871 55.3941 33.8546 54.6027C33.3952 54.2336 30.6719 51.734 30.7722 51.2801C31.2012 50.901 34.4179 50.6313 35.12 50.4885L35.1621 50.4796C35.6367 49.6464 36.7921 46.8707 37.3409 46.4849Z" fill="white"/>
</g>
<defs>
<clipPath id="clip0_144_241">
<rect width="74.3815" height="59.1345" fill="white"/>
</clipPath>
</defs>
</svg>
