<svg preserveAspectRatio="none" width="100%" height="100%" overflow="visible" style="display: block;" viewBox="0 0 74.3815 59.1345" fill="none" xmlns="http://www.w3.org/2000/svg">
<g id="g-review-1" clip-path="url(#clip0_0_139)">
<path id="Vector" d="M35.8783 0.0336925C36.9675 -0.0645675 38.4244 0.0699025 39.516 0.206752C43.5795 0.716327 46.7474 2.38887 49.7891 5.07929C49.295 5.62822 48.4228 6.43878 47.8774 6.98185L44.3134 10.566C42.7532 9.23894 41.3363 8.37423 39.3088 7.90886C36.3408 7.25155 33.2335 7.78918 30.659 9.40545C27.9825 11.0991 26.0872 13.7852 25.389 16.8746C24.6923 19.9514 25.2444 23.179 26.9242 25.8495C28.6078 28.5336 31.296 30.4321 34.3886 31.1213C37.542 31.7871 40.8308 31.1805 43.5389 29.4333C45.63 28.0746 46.8698 25.8785 47.3706 23.4759C43.9433 23.3785 40.1868 23.4509 36.7393 23.4599C36.7443 20.9385 36.6966 18.3698 36.74 15.8563L43.3203 15.8523C47.1812 15.8524 51.2325 15.7869 55.0758 15.8675C55.2603 16.6157 55.3614 17.9423 55.4151 18.7095C55.7777 23.8929 54.2919 29.0994 50.837 33.0348C47.6925 36.6164 43.2566 38.6553 38.5218 38.936C32.8609 39.2717 28.1129 37.8806 23.8457 34.1235C19.9816 30.715 17.6216 25.917 17.2805 20.7757C16.9409 15.5408 18.7253 10.3898 22.2306 6.48672C25.7914 2.47294 30.5617 0.350912 35.8783 0.0336925Z" fill="var(--fill-0, white)"/>
<path id="Vector_2" d="M67.6983 46.4941C67.9122 46.4945 68.0131 46.5866 68.1198 46.7612C68.4107 47.2372 68.6519 47.7715 68.8977 48.2714C69.26 49.0075 69.6318 49.7392 70.0128 50.4658C70.645 50.5397 74.2612 50.8603 74.3816 51.3905C74.2624 51.8886 73.5073 52.508 73.1284 52.8827C72.548 53.4563 71.9563 54.0718 71.3375 54.6009C71.4825 55.2567 72.1242 58.6445 71.9627 59.0543C71.9435 59.1031 71.9427 59.1037 71.8923 59.1194C71.4332 59.2637 68.5118 57.5879 67.9055 57.2756C67.3556 57.1523 64.2412 59.4655 63.6181 59.0478C63.5457 58.9268 63.5248 58.744 63.551 58.6092C63.8065 57.2934 64.002 55.9159 64.2473 54.6026C63.5823 54.0603 62.9746 53.3885 62.3639 52.7829C62.0439 52.4655 61.6845 52.1713 61.3874 51.8339C61.3115 51.7479 61.2179 51.6332 61.2017 51.5148C61.1889 51.4207 61.2276 51.2839 61.2899 51.2101C61.5053 50.9542 64.9982 50.5486 65.5719 50.4691C66.0227 49.6515 67.1606 47.0096 67.6983 46.4941Z" fill="var(--fill-0, white)"/>
<path id="Vector_3" d="M6.48537 46.4758C6.52974 46.4804 6.56136 46.4821 6.60556 46.4948C7.0088 46.6101 8.47624 49.9215 8.81437 50.4766C9.55472 50.5734 12.5466 50.9208 13.0854 51.1914C13.1604 51.2869 13.1767 51.3068 13.1627 51.4358C13.1034 51.9823 10.6509 54.1197 10.1325 54.59C10.2531 55.3235 10.9272 58.6164 10.674 59.0861C10.2203 59.2935 7.15763 57.5261 6.62944 57.1859C5.94715 57.4755 2.90126 59.3646 2.4273 59.0535C2.2295 58.4862 2.92242 55.4361 3.00989 54.6115L3.01414 54.5683C2.49657 54.1133 -0.112501 51.8366 0.00386354 51.2882C0.466349 50.8381 3.63923 50.562 4.35391 50.5263C4.68133 49.7315 5.99704 46.9947 6.48537 46.4758Z" fill="var(--fill-0, white)"/>
<path id="Vector_4" d="M21.8079 46.48C21.8682 46.4849 21.9317 46.4893 21.9882 46.5135C22.3739 46.6786 23.8509 49.9081 24.1349 50.4954C25.0823 50.5558 27.8104 50.863 28.5876 51.3478C28.2685 52.1179 26.1901 53.9337 25.4694 54.6289C25.6171 55.2777 26.2648 58.3949 26.075 58.9094C26.0464 58.9872 25.9915 59.0557 25.9131 59.0855C25.7764 59.1373 25.6381 59.1091 25.5029 59.064C25.0724 58.9199 24.6425 58.6415 24.2429 58.4272C23.4759 58.0142 22.7058 57.607 21.9327 57.2059C21.2957 57.3913 18.2551 59.4919 17.774 59.0426C17.6395 58.4978 18.2524 55.3009 18.4098 54.6204C18.1939 54.4446 17.785 54.0863 17.5954 53.8817C17.157 53.4084 15.2382 51.8567 15.3584 51.2431C15.6659 50.95 19.0996 50.5543 19.7519 50.4474C20.1422 49.6356 21.3476 46.9991 21.8079 46.48Z" fill="var(--fill-0, white)"/>
<path id="Vector_5" d="M52.5304 46.4754C52.5735 46.4821 52.5954 46.4841 52.6395 46.4982C53.1325 46.6554 54.5219 49.859 54.8648 50.4897C55.4548 50.5286 59.0607 50.9257 59.222 51.3508C59.1977 51.5175 59.1348 51.6839 59.0204 51.8089C58.1423 52.7687 57.165 53.7241 56.2006 54.5886C56.262 55.1857 57.109 58.8887 56.6517 59.1125C56.0023 59.1031 53.4485 57.617 52.6796 57.2041C51.9908 57.4761 49.2089 59.1615 48.7441 59.111C48.6699 59.103 48.6047 59.0782 48.5576 59.0204C48.4461 58.8833 48.4433 58.7009 48.4468 58.5315C48.4588 57.9452 48.6265 57.3198 48.7325 56.7426C48.8647 56.0235 48.9763 55.3018 49.0957 54.5807C48.6549 54.2307 45.865 51.7518 46.0594 51.2472C46.5182 50.9357 49.7813 50.5314 50.4378 50.4879C50.8215 49.6869 52.0164 47.0803 52.5304 46.4754Z" fill="var(--fill-0, white)"/>
<path id="Vector_6" d="M37.3408 46.485C37.8268 46.7048 38.1848 47.6588 38.4243 48.1412C38.8095 48.9287 39.2052 49.7111 39.6115 50.488C40.262 50.5693 43.5682 50.8906 43.9354 51.2559C43.9831 51.3034 43.9928 51.3411 43.9825 51.4101C43.9026 51.9492 41.4753 54.0988 40.9283 54.5945C41.0172 55.4193 41.7264 58.4939 41.5003 59.0803C41.175 59.3306 40.1294 58.6415 39.7971 58.4633C39.0079 58.0402 38.1628 57.6582 37.402 57.1928C36.7318 57.5663 34.0263 59.108 33.4691 59.1119C33.3468 59.1128 33.3055 59.0912 33.226 59.003C33.0738 58.4248 33.687 55.3942 33.8545 54.6028C33.3951 54.2337 30.6718 51.7341 30.7721 51.2802C31.2011 50.9011 34.4178 50.6314 35.1199 50.4886L35.162 50.4797C35.6366 49.6465 36.792 46.8708 37.3408 46.485Z" fill="var(--fill-0, white)"/>
</g>
<defs>
<clipPath id="clip0_0_139">
<rect width="74.3815" height="59.1345" fill="white"/>
</clipPath>
</defs>
</svg>
