<svg preserveAspectRatio="none" width="100%" height="100%" overflow="visible" style="display: block;" viewBox="0 0 29.8762 29.8762" fill="none" xmlns="http://www.w3.org/2000/svg">
<g id="icon - business funded" clip-path="url(#clip0_0_212)">
<path id="Vector" d="M7.28948 10.3638L7.30444 10.3471" stroke="var(--stroke-0, #0033A1)" stroke-width="2.5" stroke-linecap="round" stroke-linejoin="round"/>
<path id="Vector_2" d="M13.4085 10.3638L13.4234 10.3471" stroke="var(--stroke-0, #0033A1)" stroke-width="2.5" stroke-linecap="round" stroke-linejoin="round"/>
<path id="Vector_3" d="M7.28948 16.4828L7.30444 16.4662" stroke="var(--stroke-0, #0033A1)" stroke-width="2.5" stroke-linecap="round" stroke-linejoin="round"/>
<path id="Vector_4" d="M13.4085 16.4828L13.4234 16.4662" stroke="var(--stroke-0, #0033A1)" stroke-width="2.5" stroke-linecap="round" stroke-linejoin="round"/>
<path id="Vector_5" d="M7.28948 22.6017L7.30444 22.5851" stroke="var(--stroke-0, #0033A1)" stroke-width="2.5" stroke-linecap="round" stroke-linejoin="round"/>
<path id="Vector_6" d="M13.4085 22.6017L13.4234 22.5851" stroke="var(--stroke-0, #0033A1)" stroke-width="2.5" stroke-linecap="round" stroke-linejoin="round"/>
<path id="Vector_7" d="M19.5274 28.7057H2.08828C1.58135 28.7057 1.17047 28.2949 1.17047 27.7879V5.14778C1.17047 4.64084 1.58143 4.22997 2.08828 4.22997H10.3489V2.08822C10.3489 1.58129 10.7598 1.17041 11.2667 1.17041H18.6095C19.1164 1.17041 19.5273 1.58137 19.5273 2.08822V10.3488M19.5274 28.7057H27.7879C28.2948 28.7057 28.7057 28.2949 28.7057 27.7879V11.2667C28.7057 10.7598 28.2948 10.3489 27.7879 10.3489L19.5273 10.3488M19.5274 28.7057L19.5273 22.5869M19.5273 10.3488V16.4678M19.5273 22.5869V16.4678M19.5273 22.5869L22.5868 22.5868M19.5273 16.4678H22.5868" stroke="var(--stroke-0, #0033A1)" stroke-width="2.5" stroke-linecap="round" stroke-linejoin="round"/>
</g>
<defs>
<clipPath id="clip0_0_212">
<rect width="29.8762" height="29.8762" fill="white"/>
</clipPath>
</defs>
</svg>
