<svg preserveAspectRatio="xMidYMid meet" width="100%" height="100%" overflow="visible" style="display: block;" viewBox="0 0 35.5 33.8175" fill="none" xmlns="http://www.w3.org/2000/svg">
<g id="icon - short-term loans" clip-path="url(#clip0_0_239)">
<path id="Vector" d="M17.7499 0.925347V7.65515" stroke="var(--stroke-0, #0033A1)" stroke-width="1.85068" stroke-linecap="round" stroke-linejoin="round"/>
<path id="Vector_2" d="M4.29025 7.65519L8.4964 11.8613" stroke="var(--stroke-0, #0033A1)" stroke-width="1.85068" stroke-linecap="round" stroke-linejoin="round"/>
<path id="Vector_3" d="M27.0035 11.8613L31.2096 7.65519" stroke="var(--stroke-0, #0033A1)" stroke-width="1.85068" stroke-linecap="round" stroke-linejoin="round"/>
<path id="Vector_4" d="M2.60755 22.7973H7.65495" stroke="var(--stroke-0, #0033A1)" stroke-width="1.85068" stroke-linecap="round" stroke-linejoin="round"/>
<path id="Vector_5" d="M17.7499 22.7974L19.4324 12.7026" stroke="var(--stroke-0, #0033A1)" stroke-width="1.85068" stroke-linecap="round" stroke-linejoin="round"/>
<path id="Vector_6" d="M27.8445 22.7973H32.8919" stroke="var(--stroke-0, #0033A1)" stroke-width="1.85068" stroke-linecap="round" stroke-linejoin="round"/>
<path id="Vector_7" d="M11.861 27.8464H4.29C2.17709 25.0342 0.925093 21.5382 0.925093 17.7499C0.925093 8.458 8.45774 0.925347 17.7497 0.925347C27.0416 0.925347 34.5743 8.458 34.5743 17.7499C34.5743 21.5382 33.3222 25.0342 31.2094 27.8464L23.6383 27.8447" stroke="var(--stroke-0, #0033A1)" stroke-width="1.85068" stroke-linecap="round" stroke-linejoin="round"/>
<path id="Vector_8" d="M17.75 32.8921C20.5376 32.8921 22.7974 30.6325 22.7974 27.8447C22.7974 25.057 20.5377 22.7973 17.75 22.7973C14.9622 22.7973 12.7026 25.057 12.7026 27.8447C12.7026 30.6325 14.9622 32.8921 17.75 32.8921Z" stroke="var(--stroke-0, #0033A1)" stroke-width="1.85068" stroke-linecap="round" stroke-linejoin="round"/>
</g>
<defs>
<clipPath id="clip0_0_239">
<rect width="35.5" height="33.8175" fill="white"/>
</clipPath>
</defs>
</svg>
