<svg preserveAspectRatio="none" width="100%" height="100%" overflow="visible" style="display: block;" viewBox="0 0 43.7617 40.965" fill="none" xmlns="http://www.w3.org/2000/svg">
<g id="icon - commercial construction" clip-path="url(#clip0_0_190)">
<path id="Vector" d="M19.7916 39.9757H5.16743C2.85978 39.9757 0.989106 38.105 0.989106 35.7974V26.3123C0.989106 24.8512 1.75228 23.4962 3.00183 22.739L10.3139 18.3073C11.645 17.5007 13.3141 17.5007 14.6451 18.3073L21.9572 22.739C23.2067 23.4961 23.9699 24.8511 23.9699 26.3123V35.7974C23.9699 38.105 22.0992 39.9757 19.7916 39.9757Z" stroke="var(--stroke-0, #0033A1)" stroke-width="1.97837" stroke-linecap="round" stroke-linejoin="round"/>
<path id="Vector_2" d="M10.3903 16.9949V9.59894C10.3903 8.13787 11.1534 6.78292 12.403 6.02568L19.7151 1.59404C21.046 0.787337 22.7153 0.787337 24.0463 1.59404L31.3583 6.0256C32.6079 6.78284 33.3711 8.13779 33.3711 9.59886V16.9948" stroke="var(--stroke-0, #0033A1)" stroke-width="1.97837" stroke-linecap="round" stroke-linejoin="round"/>
<path id="Vector_3" d="M30.2374 39.9757H38.5941C40.9017 39.9757 42.7724 38.105 42.7724 35.7973V26.3123C42.7724 24.8511 42.0092 23.4961 40.7597 22.739L33.4368 18.3007C32.1114 17.4974 30.4503 17.4939 29.1214 18.2912L27.8002 19.084" stroke="var(--stroke-0, #0033A1)" stroke-width="1.97837" stroke-linecap="round" stroke-linejoin="round"/>
<path id="Vector_4" d="M15.6134 39.9757V32.8725C15.6134 32.1802 15.0522 31.619 14.3599 31.619H10.5994C9.90713 31.619 9.3459 32.1802 9.3459 32.8725V39.9757" stroke="var(--stroke-0, #0033A1)" stroke-width="1.97837" stroke-linecap="round" stroke-linejoin="round"/>
<path id="Vector_5" d="M34.4157 39.9757V32.8725C34.4157 32.1802 33.8546 31.619 33.1622 31.619H30.2374" stroke="var(--stroke-0, #0033A1)" stroke-width="1.97837" stroke-linecap="round" stroke-linejoin="round"/>
</g>
<defs>
<clipPath id="clip0_0_190">
<rect width="43.7617" height="40.965" fill="white"/>
</clipPath>
</defs>
</svg>
