<svg preserveAspectRatio="none" width="100%" height="100%" overflow="visible" style="display: block;" viewBox="0 0 23.6252 29.7395" fill="none" xmlns="http://www.w3.org/2000/svg">
<g id="icon - funding capabilities" clip-path="url(#clip0_0_275)">
<path id="Vector" d="M23.6252 0V12.0168C23.6252 16.0429 21.5908 19.5936 18.4943 21.6977V21.7004C17.5502 22.342 16.5074 22.8492 15.3936 23.1937V8.26229L18.4943 5.1503V17.5547C19.758 16.0605 20.5214 14.1294 20.525 12.02V3.11199H12.1042C7.13124 3.11199 3.10018 7.14351 3.10018 12.1159V16.6225C3.10018 16.7877 3.09972 16.9534 3.09972 17.1187C3.10018 17.9631 3.09927 18.8075 3.09792 19.6525C3.10378 21.5379 3.09657 23.4237 3.09657 25.3091V28.5962H3.09747C3.09882 28.9018 3.09837 29.2074 3.09882 29.5131H3.09657V29.7396H0V12.1047C0 5.41929 5.41929 0 12.1042 0H23.6252Z" fill="var(--fill-0, #0033A1)"/>
<path id="Vector_2" d="M13.363 10.3007V23.628C12.8929 23.686 12.4142 23.7154 11.9284 23.7154H10.2623V13.4126L13.363 10.3007Z" fill="var(--fill-0, #0033A1)"/>
<path id="Vector_3" d="M8.23183 15.4442V23.7133H5.1312C5.14022 22.8481 5.15113 21.6586 5.16106 20.5896C5.16917 19.7488 5.17603 18.9822 5.18054 18.5068L8.23183 15.4442Z" fill="var(--fill-0, #0033A1)"/>
</g>
<defs>
<clipPath id="clip0_0_275">
<rect width="23.6252" height="29.7395" fill="white"/>
</clipPath>
</defs>
</svg>
