<svg preserveAspectRatio="none" width="100%" height="100%" overflow="visible" style="display: block;" viewBox="0 0 43.61 55.0376" fill="none" xmlns="http://www.w3.org/2000/svg">
<g id="ParkCapitalIcon_1" clip-path="url(#clip0_0_288)">
<path id="Vector" d="M43.5993 0.40641C43.5609 1.23257 43.6966 24.5747 43.502 24.5359C43.3055 26.6168 42.8022 28.6676 42.0115 30.6019C40.4242 34.5012 37.6574 37.904 34.1732 40.2651C32.439 41.4437 30.5234 42.3752 28.4774 43.009C24.2008 44.7153 10.5341 43.7117 5.89146 43.9671C5.88732 45.9446 5.88943 50.8907 5.88901 52.9367H5.8907C5.89239 53.499 5.89239 54.0603 5.89315 54.6218H5.88901V55.0376H0.20075C0.359004 14.6388 -6.13979 -2.96956 43.5993 0.40641Z" fill="var(--fill-0, #0033A1)"/>
<path id="Vector_2" d="M21.9756 10.8L21.945 10.7682C21.4573 11.2984 20.9067 11.8175 20.2925 12.326C19.6774 12.8344 19.0574 13.2424 18.4325 13.5497C17.8076 13.8572 17.2513 14.0002 16.7636 13.979V17.3162C17.6744 17.3592 18.5599 17.2002 19.4184 16.8396C20.1642 16.5263 20.8891 16.0941 21.5953 15.5563V33.0503H25.1552V10.8H21.9756Z" fill="var(--fill-0, white)"/>
</g>
<defs>
<clipPath id="clip0_0_288">
<rect width="43.61" height="55.0376" fill="white"/>
</clipPath>
</defs>
</svg>
