<svg width="42" height="38" viewBox="0 0 42 38" fill="none" xmlns="http://www.w3.org/2000/svg">
<g clip-path="url(#clip0_121_544)">
<path d="M18.8427 24.1835C21.7923 24.1835 24.1834 21.7925 24.1834 18.8428C24.1834 15.8931 21.7923 13.5021 18.8427 13.5021C15.893 13.5021 13.502 15.8931 13.502 18.8428C13.502 21.7925 15.893 24.1835 18.8427 24.1835Z" stroke="#0033A1" stroke-width="2.0808" stroke-linecap="round" stroke-linejoin="round"/>
<path d="M31.6034 14.0333L30.458 11.2676L33.0844 8.16149L29.524 4.60101L26.4347 7.24102L21.6158 5.25925L20.5076 1.04053H17.0285L15.9035 5.31509L11.1953 7.29976L8.16108 4.60101L4.6006 8.16149L7.18792 11.3461L5.26369 16.077L1.04004 17.0628V20.6233L5.3146 21.7902L7.29893 26.4975L4.60052 29.5245L8.161 33.0849L11.3497 30.4863L15.9887 32.3947L17.0622 36.6454H20.6227L21.6989 32.3964L26.4176 30.4422" stroke="#0033A1" stroke-width="2.0808" stroke-linecap="round" stroke-linejoin="round"/>
<path d="M40.7147 19.3712C39.4974 18.2475 37.3535 17.4659 35.3832 17.4169M35.3832 17.4169C33.0389 17.3587 30.9403 18.3376 30.9403 21.0116C30.9403 25.9329 40.7146 23.4722 40.7146 28.3935C40.7146 31.2004 38.1132 32.4063 35.3832 32.3159M35.3832 17.4169L35.3831 14.4498M30.0518 30.0341C31.197 31.4437 33.3266 32.2476 35.3832 32.3159M35.3832 32.3159L35.3831 35.7756" stroke="#0033A1" stroke-width="2.0808" stroke-linecap="round" stroke-linejoin="round"/>
</g>
<defs>
<clipPath id="clip0_121_544">
<rect width="41.7553" height="37.6856" fill="white"/>
</clipPath>
</defs>
</svg>
