<svg preserveAspectRatio="xMidYMid meet" width="100%" height="100%" overflow="visible" style="display: block;" viewBox="0 0 40.8816 31.6336" fill="none" xmlns="http://www.w3.org/2000/svg">
<g id="icon - merchant cash advances" clip-path="url(#clip0_0_256)">
<path id="Vector" d="M6.5686 26.9144V12.1176C6.5686 10.0746 8.22483 8.41838 10.2678 8.41838H36.1622C38.2053 8.41838 39.8614 10.0746 39.8614 12.1176V26.9144C39.8614 28.9574 38.2053 30.6136 36.1622 30.6136H10.2678C8.22483 30.6136 6.5686 28.9574 6.5686 26.9144Z" stroke="var(--stroke-0, #0033A1)" stroke-width="2.04" stroke-linecap="round" stroke-linejoin="round"/>
<path id="Vector_2" d="M33.3876 19.5345L33.4061 19.5139" stroke="var(--stroke-0, #0033A1)" stroke-width="2.04" stroke-linecap="round" stroke-linejoin="round"/>
<path id="Vector_3" d="M13.0424 19.5345L13.0609 19.5139" stroke="var(--stroke-0, #0033A1)" stroke-width="2.04" stroke-linecap="round" stroke-linejoin="round"/>
<path id="Vector_4" d="M6.56874 23.2151H4.71914C2.67617 23.2151 1.01994 21.559 1.01994 19.5159V4.7191C1.01994 2.67612 2.67617 1.0199 4.71914 1.0199H30.6135C32.6566 1.0199 34.3127 2.67612 34.3127 4.7191V8.4183" stroke="var(--stroke-0, #0033A1)" stroke-width="2.04" stroke-linecap="round" stroke-linejoin="round"/>
<path id="Vector_5" d="M23.2149 23.2152C21.1719 23.2152 19.5157 21.559 19.5157 19.516C19.5157 17.4729 21.1719 15.8168 23.2149 15.8168C25.258 15.8168 26.9141 17.4729 26.9141 19.516C26.9141 21.559 25.258 23.2152 23.2149 23.2152Z" stroke="var(--stroke-0, #0033A1)" stroke-width="2.04" stroke-linecap="round" stroke-linejoin="round"/>
</g>
<defs>
<clipPath id="clip0_0_256">
<rect width="40.8816" height="31.6336" fill="white"/>
</clipPath>
</defs>
</svg>
