<svg preserveAspectRatio="xMidYMid meet" width="100%" height="100%" overflow="visible" style="display: block;" viewBox="0 0 41.7553 37.6856" fill="none" xmlns="http://www.w3.org/2000/svg">
<g id="icon - equipment financing" clip-path="url(#clip0_0_291)">
<path id="Vector" d="M18.8427 24.1835C21.7924 24.1835 24.1835 21.7924 24.1835 18.8428C24.1835 15.8931 21.7924 13.5021 18.8427 13.5021C15.8931 13.5021 13.502 15.8931 13.502 18.8428C13.502 21.7924 15.8931 24.1835 18.8427 24.1835Z" stroke="var(--stroke-0, #0033A1)" stroke-width="2.0808" stroke-linecap="round" stroke-linejoin="round"/>
<path id="Vector_2" d="M31.6036 14.0333L30.4583 11.2676L33.0847 8.16147L29.5242 4.60099L26.4349 7.241L21.616 5.25923L20.5078 1.04051H17.0287L15.9037 5.31507L11.1956 7.29974L8.16131 4.60099L4.60083 8.16147L7.18814 11.3461L5.26391 16.077L1.04026 17.0628V20.6232L5.31483 21.7902L7.29915 26.4975L4.60074 29.5244L8.16122 33.0849L11.3499 30.4863L15.989 32.3947L17.0624 36.6454H20.6229L21.6991 32.3963L26.4178 30.4422" stroke="var(--stroke-0, #0033A1)" stroke-width="2.0808" stroke-linecap="round" stroke-linejoin="round"/>
<path id="Vector_3" d="M40.7148 19.3711C39.4975 18.2474 37.3537 17.4659 35.3834 17.4169M35.3834 17.4169C33.0391 17.3587 30.9405 18.3376 30.9405 21.0115C30.9405 25.9329 40.7147 23.4722 40.7147 28.3935C40.7147 31.2004 38.1134 32.4063 35.3834 32.3159M35.3834 17.4169L35.3833 14.4498M30.0519 30.034C31.1972 31.4437 33.3268 32.2476 35.3834 32.3159M35.3834 32.3159L35.3833 35.7755" stroke="var(--stroke-0, #0033A1)" stroke-width="2.0808" stroke-linecap="round" stroke-linejoin="round"/>
</g>
<defs>
<clipPath id="clip0_0_291">
<rect width="41.7553" height="37.6856" fill="white"/>
</clipPath>
</defs>
</svg>
