<svg preserveAspectRatio="none" width="100%" height="100%" overflow="visible" style="display: block;" viewBox="0 0 37.3601 35.3967" fill="none" xmlns="http://www.w3.org/2000/svg">
<g id="icon - automotive" clip-path="url(#clip0_0_202)">
<path id="Vector" d="M10.8263 12.7898H26.5336" stroke="var(--stroke-0, #0033A1)" stroke-width="2.01875" stroke-linecap="round" stroke-linejoin="round"/>
<path id="Vector_2" d="M8.863 20.6435H10.8264" stroke="var(--stroke-0, #0033A1)" stroke-width="2.01875" stroke-linecap="round" stroke-linejoin="round"/>
<path id="Vector_3" d="M26.5338 20.6435H28.4972" stroke="var(--stroke-0, #0033A1)" stroke-width="2.01875" stroke-linecap="round" stroke-linejoin="round"/>
<path id="Vector_4" d="M1.00938 28.4971V15.5592C1.00938 15.0275 1.11743 14.5011 1.32689 14.0124L5.87966 3.38929C6.49844 1.94548 7.91811 1.00935 9.48894 1.00935H27.8712C29.4421 1.00935 30.8617 1.94548 31.4806 3.38929L36.0333 14.0124C36.2428 14.5011 36.3508 15.0275 36.3508 15.5591V28.4971M1.00938 28.4971L1.00946 33.2092C1.00946 33.8599 1.53692 34.3873 2.18752 34.3873H7.68506C8.33567 34.3873 8.86313 33.8599 8.86313 33.2092V28.4971M1.00938 28.4971H8.86313M36.3508 28.4971L36.3507 33.2092C36.3507 33.8599 35.8234 34.3873 35.1727 34.3873H29.6751C29.0245 34.3873 28.4971 33.8599 28.4971 33.2092V28.4971M36.3508 28.4971H28.4971M8.86313 28.4971H28.4971" stroke="var(--stroke-0, #0033A1)" stroke-width="2.01875" stroke-miterlimit="10.6667"/>
</g>
<defs>
<clipPath id="clip0_0_202">
<rect width="37.3601" height="35.3967" fill="white"/>
</clipPath>
</defs>
</svg>
