<svg width="44" height="41" viewBox="0 0 44 41" fill="none" xmlns="http://www.w3.org/2000/svg">
<g clip-path="url(#clip0_88_56)">
<path d="M19.7916 39.9757H5.16746C2.85981 39.9757 0.989136 38.1051 0.989136 35.7974V26.3124C0.989136 24.8512 1.75231 23.4962 3.00186 22.739L10.3139 18.3073C11.645 17.5007 13.3141 17.5007 14.6451 18.3073L21.9572 22.739C23.2068 23.4961 23.9699 24.8511 23.9699 26.3124V35.7974C23.9699 38.1051 22.0993 39.9757 19.7916 39.9757Z" stroke="#0033A1" stroke-width="1.97837" stroke-linecap="round" stroke-linejoin="round"/>
<path d="M10.3903 16.9949V9.59894C10.3903 8.13787 11.1534 6.78292 12.403 6.02568L19.7151 1.59404C21.046 0.787338 22.7153 0.787338 24.0463 1.59404L31.3583 6.0256C32.6079 6.78284 33.3711 8.13779 33.3711 9.59886V16.9948" stroke="#0033A1" stroke-width="1.97837" stroke-linecap="round" stroke-linejoin="round"/>
<path d="M30.2374 39.9757H38.594C40.9017 39.9757 42.7724 38.105 42.7724 35.7973V26.3123C42.7724 24.8512 42.0092 23.4961 40.7596 22.739L33.4367 18.3008C32.1114 17.4975 30.4502 17.4939 29.1213 18.2912L27.8002 19.084" stroke="#0033A1" stroke-width="1.97837" stroke-linecap="round" stroke-linejoin="round"/>
<path d="M15.6134 39.9757V32.8725C15.6134 32.1802 15.0522 31.619 14.3599 31.619H10.5994C9.90717 31.619 9.34595 32.1802 9.34595 32.8725V39.9757" stroke="#0033A1" stroke-width="1.97837" stroke-linecap="round" stroke-linejoin="round"/>
<path d="M34.4158 39.9757V32.8725C34.4158 32.1802 33.8546 31.619 33.1623 31.619H30.2374" stroke="#0033A1" stroke-width="1.97837" stroke-linecap="round" stroke-linejoin="round"/>
</g>
<defs>
<clipPath id="clip0_88_56">
<rect width="43.7617" height="40.965" fill="white"/>
</clipPath>
</defs>
</svg>
