<svg width="31" height="31" viewBox="0 0 31 31" fill="none" xmlns="http://www.w3.org/2000/svg">
<g clip-path="url(#clip0_121_503)">
<path d="M0.947266 29.0783V1.91744C0.947266 1.38174 1.38154 0.947388 1.91732 0.947388H29.0781C29.6139 0.947388 30.0482 1.38166 30.0482 1.91744V29.0783C30.0482 29.614 29.6139 30.0483 29.0781 30.0483H1.91732C1.38162 30.0483 0.947266 29.614 0.947266 29.0783Z" stroke="#0033A1" stroke-width="1.89456" stroke-miterlimit="10.6667"/>
<path d="M20.3483 9.83926C19.2408 8.73186 17.2906 7.9615 15.4981 7.91329M15.4981 7.91329C13.3655 7.85588 11.4563 8.82068 11.4563 11.456C11.4563 16.3061 20.3483 13.881 20.3483 18.7311C20.3483 21.4973 17.9817 22.686 15.4981 22.5968M15.4981 7.91329V4.98901M10.6479 20.3479C11.6899 21.7371 13.6272 22.5295 15.4981 22.5968M15.4981 22.5968V26.0063" stroke="#0033A1" stroke-width="1.89456" stroke-linecap="round" stroke-linejoin="round"/>
</g>
<defs>
<clipPath id="clip0_121_503">
<rect width="30.9955" height="30.9955" fill="white"/>
</clipPath>
</defs>
</svg>
