<svg preserveAspectRatio="none" width="100%" height="100%" overflow="visible" style="display: block;" viewBox="0 0 37.3476 39.0829" fill="none" xmlns="http://www.w3.org/2000/svg">
<g id="icon - wholesale" clip-path="url(#clip0_0_198)">
<path id="Vector" d="M0.466351 10.1202L18.0777 17.9475L19.2698 15.2651L1.65839 7.43792L0.466351 10.1202ZM20.1413 38.1313V16.6063H17.2061V38.1313H20.1413ZM19.2697 17.9475L36.881 10.1202L35.6889 7.43792L18.0776 15.2651L19.2697 17.9475Z" fill="var(--fill-0, #0033A1)"/>
<path id="Vector_2" d="M1.06247 29.541V9.54204C1.06247 9.07803 1.33574 8.65762 1.75972 8.46917L18.1969 1.16368C18.5006 1.02878 18.847 1.02878 19.1507 1.16368L35.5879 8.46909C36.012 8.65753 36.2852 9.07803 36.2852 9.54196V29.5409C36.2852 30.0049 36.012 30.4254 35.5879 30.6139L19.1507 37.9193C18.847 38.0541 18.5006 38.0541 18.1969 37.9193L1.75972 30.614C1.33574 30.4255 1.06247 30.005 1.06247 29.541Z" stroke="var(--stroke-0, #0033A1)" stroke-width="2.125" stroke-linecap="round" stroke-linejoin="round"/>
<path id="Vector_3" d="M9.86815 4.86541L26.7822 12.3828C27.2063 12.5713 27.4795 12.9917 27.4795 13.4557V20.5199" stroke="var(--stroke-0, #0033A1)" stroke-width="2.125" stroke-linecap="round" stroke-linejoin="round"/>
</g>
<defs>
<clipPath id="clip0_0_198">
<rect width="37.3476" height="39.0829" fill="white"/>
</clipPath>
</defs>
</svg>
