<svg preserveAspectRatio="none" width="100%" height="100%" overflow="visible" style="display: block;" viewBox="0 0 28.5236 28.5236" fill="none" xmlns="http://www.w3.org/2000/svg">
<g id="icon - average loan" clip-path="url(#clip0_0_266)">
<path id="Vector" d="M20.1379 15.7309C16.0814 15.7309 12.7929 14.0866 12.7929 12.0583C12.7929 10.0301 16.0814 8.38583 20.1379 8.38583C24.1944 8.38583 27.4829 10.0301 27.4829 12.0583C27.4829 14.0866 24.1944 15.7309 20.1379 15.7309Z" stroke="var(--stroke-0, #0033A1)" stroke-width="2.1" stroke-linecap="round" stroke-linejoin="round"/>
<path id="Vector_2" d="M12.7929 17.9343C12.7929 19.9626 16.0814 21.6068 20.1379 21.6068C24.1944 21.6068 27.4829 19.9626 27.4829 17.9343" stroke="var(--stroke-0, #0033A1)" stroke-width="2.1" stroke-linecap="round" stroke-linejoin="round"/>
<path id="Vector_3" d="M1.04085 10.5893C1.04085 12.6175 4.32938 14.2618 8.38587 14.2618C10.0397 14.2618 11.5658 13.9885 12.7936 13.5273" stroke="var(--stroke-0, #0033A1)" stroke-width="2.1" stroke-linecap="round" stroke-linejoin="round"/>
<path id="Vector_4" d="M1.04085 15.7308C1.04085 17.7591 4.32938 19.4033 8.38587 19.4033C10.0394 19.4033 11.5652 19.1301 12.7929 18.6692" stroke="var(--stroke-0, #0033A1)" stroke-width="2.1" stroke-linecap="round" stroke-linejoin="round"/>
<path id="Vector_5" d="M1.04085 4.71322V20.8724C1.04085 22.9006 4.32938 24.5449 8.38587 24.5449C10.0395 24.5449 11.5652 24.2714 12.7929 23.8104" stroke="var(--stroke-0, #0033A1)" stroke-width="2.1" stroke-linecap="round" stroke-linejoin="round"/>
<path id="Vector_6" d="M15.7309 9.12024V4.71322" stroke="var(--stroke-0, #0033A1)" stroke-width="2.1" stroke-linecap="round" stroke-linejoin="round"/>
<path id="Vector_7" d="M12.7929 12.0583V23.8104C12.7929 25.8387 16.0814 27.4829 20.1379 27.4829C24.1944 27.4829 27.4829 25.8387 27.4829 23.8104V12.0583" stroke="var(--stroke-0, #0033A1)" stroke-width="2.1" stroke-linecap="round" stroke-linejoin="round"/>
<path id="Vector_8" d="M8.38587 8.38576C4.32929 8.38576 1.04085 6.74149 1.04085 4.71325C1.04085 2.685 4.32938 1.04073 8.38587 1.04073C12.4424 1.04073 15.7309 2.685 15.7309 4.71325C15.7309 6.74149 12.4424 8.38576 8.38587 8.38576Z" stroke="var(--stroke-0, #0033A1)" stroke-width="2.1" stroke-linecap="round" stroke-linejoin="round"/>
</g>
<defs>
<clipPath id="clip0_0_266">
<rect width="28.5236" height="28.5236" fill="white"/>
</clipPath>
</defs>
</svg>
