<svg preserveAspectRatio="none" width="100%" height="100%" overflow="visible" style="display: block;" viewBox="0 0 42.4717 40.4543" fill="none" xmlns="http://www.w3.org/2000/svg">
<g id="icon - services" clip-path="url(#clip0_0_230)">
<path id="Vector" d="M5.09716 18.2094L4.11864 18.4542C2.3225 18.9032 1.06255 20.5169 1.06255 22.3684V26.1546C1.06255 28.006 2.32259 29.6198 4.11864 30.0688L7.62786 30.9462C8.39184 31.1373 9.13185 30.5594 9.13185 29.7719V18.7512C9.13185 17.9637 8.39184 17.3859 7.62786 17.577L5.09716 18.2094ZM5.09716 18.2094V17.2012C5.09716 8.28799 12.3227 1.06248 21.2358 1.06248C30.1489 1.06248 37.3745 8.28799 37.3745 17.2012V18.2094M37.3745 18.2094L38.3531 18.4542C40.1491 18.9032 41.4092 20.5169 41.4092 22.3684V26.1546C41.4092 28.006 40.1491 29.6198 38.3531 30.0688L37.3745 30.3135M37.3745 18.2094L34.8438 17.5769C34.0798 17.3858 33.3399 17.9636 33.3399 18.7511V29.7718C33.3399 30.5593 34.0798 31.1372 34.8438 30.9461L37.3745 30.3135M37.3745 30.3135V32.3312C37.3745 34.5595 35.5681 36.3659 33.3398 36.3659H27.2878M27.2878 36.3659C27.2878 34.6947 25.933 33.3399 24.2618 33.3399H18.2098C16.5386 33.3399 15.1838 34.6947 15.1838 36.3659C15.1838 38.0371 16.5386 39.3919 18.2098 39.3919H24.2618C25.933 39.3919 27.2878 38.0371 27.2878 36.3659Z" stroke="var(--stroke-0, #0033A1)" stroke-width="2.125" stroke-miterlimit="10.6667"/>
</g>
<defs>
<clipPath id="clip0_0_230">
<rect width="42.4717" height="40.4543" fill="white"/>
</clipPath>
</defs>
</svg>
