<svg width="40" height="51" viewBox="0 0 40 51" fill="none" xmlns="http://www.w3.org/2000/svg">
<g clip-path="url(#clip0_123_650)">
<path d="M13.8959 26.083V40.0316H8.68311C8.6976 38.577 8.71593 36.5767 8.73275 34.7789C8.7465 33.3381 8.75874 32.0273 8.7664 31.2316L13.8959 26.083Z" fill="white"/>
<path d="M22.5575 17.3892V39.8841C21.764 39.9819 20.9561 40.0316 20.136 40.0316H17.324V22.6418L22.5575 17.3892Z" fill="white"/>
<path d="M39.8822 0V20.2858C39.8822 27.0824 36.448 33.0772 31.2198 36.6291V36.6337C29.6269 37.7167 27.8666 38.5728 25.9856 39.1545V13.9478L31.2198 8.69444V29.6353C33.3539 27.113 34.6426 23.8522 34.6487 20.2911V5.2534H20.4333C12.0385 5.2534 5.23349 12.0592 5.23349 20.4532V28.0608C5.23349 28.3397 5.23274 28.6195 5.23274 28.8985C5.23349 30.3248 5.23199 31.7503 5.22966 33.1766C5.23957 36.3593 5.22741 39.5428 5.22741 42.7256V48.274H5.22891C5.23041 48.7907 5.23041 49.3067 5.23116 49.8226H5.22732V50.2047H0V20.4341C0 9.14851 9.14851 0 20.4333 0H39.8822Z" fill="#0033A1"/>
<path d="M22.5581 17.3892V39.8873C21.7645 39.9852 20.9565 40.0348 20.1362 40.0348H17.3237V22.6426L22.5581 17.3892Z" fill="#0033A1"/>
<path d="M13.8959 26.0721V40.0315H8.66162C8.67695 38.5708 8.69527 36.5629 8.7121 34.7583C8.72585 33.3388 8.73734 32.0448 8.745 31.2422L13.8959 26.0721Z" fill="#0033A1"/>
</g>
<defs>
<clipPath id="clip0_123_650">
<rect width="39.8822" height="50.2047" fill="white"/>
</clipPath>
</defs>
</svg>
