<svg width="43" height="41" viewBox="0 0 43 41" fill="none" xmlns="http://www.w3.org/2000/svg">
<g clip-path="url(#clip0_88_27)">
<path d="M5.09711 18.2095L4.11859 18.4542C2.32245 18.9032 1.0625 20.5169 1.0625 22.3684V26.1546C1.0625 28.0061 2.32254 29.6198 4.11859 30.0688L7.62781 30.9462C8.39179 31.1373 9.1318 30.5595 9.1318 29.7719V18.7513C9.1318 17.9637 8.39179 17.3859 7.62781 17.577L5.09711 18.2095ZM5.09711 18.2095V17.2012C5.09711 8.28801 12.3226 1.0625 21.2357 1.0625C30.1488 1.0625 37.3744 8.28801 37.3744 17.2012V18.2095M37.3744 18.2095L38.353 18.4542C40.1491 18.9032 41.4091 20.5169 41.4091 22.3684V26.1546C41.4091 28.0061 40.1491 29.6198 38.353 30.0688L37.3744 30.3135M37.3744 18.2095L34.8437 17.5769C34.0797 17.3858 33.3398 17.9636 33.3398 18.7512V29.7718C33.3398 30.5594 34.0797 31.1372 34.8437 30.9461L37.3744 30.3135M37.3744 30.3135V32.3312C37.3744 34.5596 35.5681 36.3659 33.3397 36.3659H27.2877M27.2877 36.3659C27.2877 34.6947 25.9329 33.3399 24.2617 33.3399H18.2097C16.5385 33.3399 15.1837 34.6947 15.1837 36.3659C15.1837 38.0371 16.5385 39.3919 18.2097 39.3919H24.2617C25.9329 39.3919 27.2877 38.0371 27.2877 36.3659Z" stroke="#0033A1" stroke-width="2.125" stroke-miterlimit="10.6667"/>
</g>
<defs>
<clipPath id="clip0_88_27">
<rect width="42.4717" height="40.4543" fill="white"/>
</clipPath>
</defs>
</svg>
