<svg width="42" height="32" viewBox="0 0 42 32" fill="none" xmlns="http://www.w3.org/2000/svg">
<g clip-path="url(#clip0_114_333)">
<path d="M34.2353 29.577H6.94113V25.6893H4.62256V31.8948H34.2354L34.2353 29.577Z" fill="#0033A1"/>
<path d="M4.6653 0V6.20602H6.98387V2.31882H34.2648V6.20602H36.5834V0H4.6653ZM5.5796 8.39139C1.05025 8.39139 0.214331 11.2379 0.214331 12.8528C0.214331 16.0444 2.39104 16.5686 4.64656 17.1139L6.14371 17.4778C7.62112 17.8411 8.67045 18.1436 8.67045 19.2745C8.67045 20.8095 7.13489 21.1532 5.75453 21.1532C3.20805 21.1532 2.81862 19.6181 2.79955 18.8107H0C0 20.6074 0.874817 23.656 5.96778 23.656C7.19204 23.656 11.47 23.2729 11.47 18.9106C11.47 16.3065 9.72019 15.4995 7.81512 15.0152L4.41298 14.1459C3.82997 14.0052 2.93583 13.7619 2.93583 12.6314C2.93583 11.3191 4.25705 10.8947 5.36527 10.8947C7.91217 10.8947 8.14524 12.4294 8.22354 13.0754H11.0241C11.0039 11.2984 9.85664 8.39139 5.5796 8.39139ZM34.2605 8.77024L29.6553 23.2781H32.5628L35.3845 13.7529L38.2526 23.2781H41.1601L36.561 8.77024H34.2605ZM15.1578 8.77491V23.2734H21.2962C24.2642 23.2734 25.0524 22.768 25.8804 21.961C26.6475 21.2137 27.1323 20.1226 27.1323 18.972C27.1323 17.5372 26.6672 16.1245 24.8906 15.4582C25.4964 15.1558 26.6672 14.5693 26.6672 12.4903C26.6672 10.9959 25.7589 8.77491 22.2044 8.77491H15.1578ZM18.0648 11.2777H21.5382C22.9116 11.2777 23.7602 11.6416 23.7602 12.8334C23.7602 13.985 22.8103 14.4492 21.6189 14.4492H18.0649L18.0648 11.2777ZM18.0657 16.8916H21.9221C23.0127 16.8916 24.1043 17.3778 24.1043 18.6489C24.1043 20.123 23.2556 20.7686 21.781 20.7686H18.0657V16.8916ZM34.2409 23.3138V31.8997L36.5459 29.5685V23.3138H34.2409Z" fill="#0033A1"/>
</g>
<defs>
<clipPath id="clip0_114_333">
<rect width="41.16" height="31.8997" fill="white"/>
</clipPath>
</defs>
</svg>
