<svg width="38" height="40" viewBox="0 0 38 40" fill="none" xmlns="http://www.w3.org/2000/svg">
<g clip-path="url(#clip0_88_36)">
<path d="M0.466394 10.1202L18.0777 17.9475L19.2698 15.2652L1.65843 7.43793L0.466394 10.1202ZM20.1413 38.1313V16.6063H17.2061V38.1313H20.1413ZM19.2698 17.9475L36.8811 10.1202L35.6889 7.43793L18.0776 15.2652L19.2698 17.9475Z" fill="#0033A1"/>
<path d="M1.0625 29.541V9.54204C1.0625 9.07802 1.33578 8.65761 1.75976 8.46917L18.197 1.16367C18.5007 1.02878 18.8471 1.02878 19.1508 1.16367L35.588 8.46908C36.012 8.65753 36.2852 9.07802 36.2852 9.54195V29.5409C36.2852 30.0049 36.012 30.4254 35.588 30.6139L19.1508 37.9193C18.8471 38.0541 18.5007 38.0541 18.197 37.9193L1.75976 30.614C1.33578 30.4255 1.0625 30.005 1.0625 29.541Z" stroke="#0033A1" stroke-width="2.125" stroke-linecap="round" stroke-linejoin="round"/>
<path d="M9.86816 4.86542L26.7822 12.3828C27.2063 12.5713 27.4795 12.9918 27.4795 13.4557V20.52" stroke="#0033A1" stroke-width="2.125" stroke-linecap="round" stroke-linejoin="round"/>
</g>
<defs>
<clipPath id="clip0_88_36">
<rect width="37.3476" height="39.0829" fill="white"/>
</clipPath>
</defs>
</svg>
