<svg width="38" height="36" viewBox="0 0 38 36" fill="none" xmlns="http://www.w3.org/2000/svg">
<g clip-path="url(#clip0_88_50)">
<path d="M10.8263 12.7899H26.5335" stroke="#0033A1" stroke-width="2.01875" stroke-linecap="round" stroke-linejoin="round"/>
<path d="M8.86304 20.6435H10.8265" stroke="#0033A1" stroke-width="2.01875" stroke-linecap="round" stroke-linejoin="round"/>
<path d="M26.5338 20.6435H28.4972" stroke="#0033A1" stroke-width="2.01875" stroke-linecap="round" stroke-linejoin="round"/>
<path d="M1.0094 28.497V15.5592C1.0094 15.0275 1.11744 14.5011 1.32691 14.0124L5.87967 3.38928C6.49846 1.94547 7.91813 1.00934 9.48896 1.00934H27.8712C29.4421 1.00934 30.8617 1.94547 31.4806 3.38928L36.0333 14.0124C36.2428 14.501 36.3508 15.0275 36.3508 15.5591V28.497M1.0094 28.497L1.00948 33.2092C1.00948 33.8599 1.53694 34.3873 2.18754 34.3873H7.68508C8.33569 34.3873 8.86314 33.8599 8.86314 33.2092V28.497M1.0094 28.497H8.86314M36.3508 28.497L36.3508 33.2092C36.3508 33.8599 35.8234 34.3873 35.1727 34.3873H29.6752C29.0245 34.3873 28.4971 33.8599 28.4971 33.2092V28.497M36.3508 28.497H28.4971M8.86314 28.497H28.4971" stroke="#0033A1" stroke-width="2.01875" stroke-miterlimit="10.6667"/>
</g>
<defs>
<clipPath id="clip0_88_50">
<rect width="37.3601" height="35.3967" fill="white"/>
</clipPath>
</defs>
</svg>
