<svg width="47" height="39" viewBox="0 0 47 39" fill="none" xmlns="http://www.w3.org/2000/svg">
<g clip-path="url(#clip0_88_69)">
<path d="M36.9666 36.9665L45.5483 28.3847C45.8008 28.1323 45.9426 27.7898 45.9426 27.4328V15.6484C45.9426 13.7894 44.4355 12.2824 42.5766 12.2824C40.7176 12.2824 39.2106 13.7894 39.2106 15.6484V25.7464" stroke="#0033A1" stroke-width="2.125" stroke-linecap="round" stroke-linejoin="round"/>
<path d="M36.9665 27.9905L38.8921 26.0649C39.0961 25.8609 39.2105 25.5845 39.2105 25.2964C39.2105 24.8846 38.9778 24.5083 38.6096 24.3241L37.6157 23.8272C35.8881 22.9633 33.8011 23.3019 32.4352 24.6678L30.4271 26.6759C29.5853 27.5177 29.1125 28.6591 29.1125 29.8494V36.9664" stroke="#0033A1" stroke-width="2.125" stroke-linecap="round" stroke-linejoin="round"/>
<path d="M10.0385 36.9665L1.4569 28.3847C1.20436 28.1323 1.0625 27.7898 1.0625 27.4328V15.6484C1.0625 13.7894 2.56947 12.2824 4.4285 12.2824C6.28754 12.2824 7.7945 13.7894 7.7945 15.6484V25.7464" stroke="#0033A1" stroke-width="2.125" stroke-linecap="round" stroke-linejoin="round"/>
<path d="M10.0384 27.9905L8.11276 26.0649C7.90893 25.8609 7.79443 25.5845 7.79443 25.2964C7.79443 24.8846 8.02708 24.5083 8.3953 24.3241L9.3892 23.8272C11.117 22.9633 13.2038 23.3019 14.5698 24.6678L16.5779 26.6759C17.4196 27.5177 17.8924 28.6591 17.8924 29.8494V36.9664" stroke="#0033A1" stroke-width="2.125" stroke-linecap="round" stroke-linejoin="round"/>
<path d="M27.2427 19.0145H19.7625V13.7785H14.5266V6.2985H19.7625V1.0625H27.2427V6.2985H32.4786V13.7785H27.2427V19.0145Z" stroke="#0033A1" stroke-width="2.125" stroke-linecap="round" stroke-linejoin="round"/>
</g>
<defs>
<clipPath id="clip0_88_69">
<rect width="47.005" height="38.029" fill="white"/>
</clipPath>
</defs>
</svg>
