<svg preserveAspectRatio="none" width="100%" height="100%" overflow="visible" style="display: block;" viewBox="0 0 55.0086 33.3744" fill="none" xmlns="http://www.w3.org/2000/svg">
<g id="icon - transportation" clip-path="url(#clip0_0_220)">
<path id="Vector" d="M17.8889 32.3119C20.5441 32.3119 22.6965 30.1595 22.6965 27.5043C22.6965 24.8491 20.5441 22.6967 17.8889 22.6967C15.2338 22.6967 13.0813 24.8491 13.0813 27.5043C13.0813 30.1595 15.2338 32.3119 17.8889 32.3119Z" stroke="var(--stroke-0, #0033A1)" stroke-width="2.125" stroke-linecap="round" stroke-linejoin="round"/>
<path id="Vector_2" d="M41.927 32.3119C44.5822 32.3119 46.7346 30.1595 46.7346 27.5043C46.7346 24.8491 44.5822 22.6967 41.927 22.6967C39.2717 22.6967 37.1194 24.8491 37.1194 27.5043C37.1194 30.1595 39.2717 32.3119 41.927 32.3119Z" stroke="var(--stroke-0, #0033A1)" stroke-width="2.125" stroke-linecap="round" stroke-linejoin="round"/>
<path id="Vector_3" d="M22.8168 27.5043H34.7156V2.50476C34.7156 1.70822 34.07 1.06248 33.2734 1.06248H1.06244" stroke="var(--stroke-0, #0033A1)" stroke-width="2.125" stroke-miterlimit="10.6667" stroke-linecap="round"/>
<path id="Vector_4" d="M12.2401 27.5043H7.31233C6.51579 27.5043 5.87005 26.8586 5.87005 26.062V14.2834" stroke="var(--stroke-0, #0033A1)" stroke-width="2.125" stroke-miterlimit="10.6667" stroke-linecap="round"/>
<path id="Vector_5" d="M3.46614 8.27388H13.0813" stroke="var(--stroke-0, #0033A1)" stroke-width="2.125" stroke-linecap="round" stroke-linejoin="round"/>
<path id="Vector_6" d="M34.7157 8.27388H48.2013C48.7712 8.27388 49.2878 8.60955 49.5193 9.13043L53.8218 18.8112C53.9037 18.9958 53.9461 19.1953 53.9461 19.397V26.062C53.9461 26.8586 53.3004 27.5043 52.5038 27.5043H47.9366" stroke="var(--stroke-0, #0033A1)" stroke-width="2.125" stroke-miterlimit="10.6667" stroke-linecap="round"/>
<path id="Vector_7" d="M34.7157 27.5043H37.1195" stroke="var(--stroke-0, #0033A1)" stroke-width="2.125" stroke-miterlimit="10.6667" stroke-linecap="round"/>
</g>
<defs>
<clipPath id="clip0_0_220">
<rect width="55.0086" height="33.3744" fill="white"/>
</clipPath>
</defs>
</svg>
