<svg preserveAspectRatio="xMidYMid meet" width="100%" height="100%" overflow="visible" style="display: block;" viewBox="0 0 30.9955 30.9955" fill="none" xmlns="http://www.w3.org/2000/svg">
<g id="icon - working capital loans" clip-path="url(#clip0_0_174)">
<path id="Vector" d="M0.947458 29.0782V1.91738C0.947458 1.38168 1.38173 0.94733 1.91751 0.94733H29.0783C29.6141 0.94733 30.0484 1.3816 30.0484 1.91738V29.0782C30.0484 29.614 29.6141 30.0483 29.0783 30.0483H1.91751C1.38181 30.0483 0.947458 29.614 0.947458 29.0782Z" stroke="var(--stroke-0, #0033A1)" stroke-width="1.89456" stroke-miterlimit="10.6667"/>
<path id="Vector_2" d="M20.3482 9.83925C19.2407 8.73185 17.2905 7.96149 15.498 7.91328M15.498 7.91328C13.3654 7.85587 11.4562 8.82067 11.4562 11.4559C11.4562 16.3061 20.3482 13.881 20.3482 18.7311C20.3482 21.4973 17.9816 22.686 15.498 22.5968M15.498 7.91328V4.989M10.6478 20.3479C11.6898 21.7371 13.6271 22.5295 15.498 22.5968M15.498 22.5968V26.0063" stroke="var(--stroke-0, #0033A1)" stroke-width="1.89456" stroke-linecap="round" stroke-linejoin="round"/>
</g>
<defs>
<clipPath id="clip0_0_174">
<rect width="30.9955" height="30.9955" fill="white"/>
</clipPath>
</defs>
</svg>
