<svg width="44" height="56" viewBox="0 0 44 56" fill="none" xmlns="http://www.w3.org/2000/svg">
<g clip-path="url(#clip0_77_36)">
<path d="M43.6022 0.406438C43.5639 1.23266 43.6996 24.5764 43.505 24.5376C43.3084 26.6186 42.8051 28.6695 42.0144 30.604C40.427 34.5035 37.6599 37.9066 34.1755 40.2679C32.4412 41.4465 30.5255 42.3781 28.4793 43.012C24.2025 44.7184 10.5349 43.7147 5.89186 43.9702C5.88772 45.9477 5.88984 50.8942 5.88941 52.9403H5.8911C5.89279 53.5026 5.89279 54.064 5.89355 54.6255H5.88941V55.0414H0.200764C0.359029 14.6398 -6.14021 -2.96976 43.6022 0.406438Z" fill="#0033A1"/>
<path d="M28.4505 24.1358C27.9734 23.3095 27.306 22.6053 26.4474 22.022C26.0335 21.741 25.5882 21.4948 25.1148 21.2802C25.4277 21.1382 25.7322 20.9867 26.0185 20.8142C26.8452 20.3162 27.4963 19.6966 27.9733 18.9545C28.4504 18.2127 28.6881 17.3545 28.6881 16.3796C28.6881 15.2143 28.3752 14.1812 27.7511 13.2802C27.1253 12.38 26.2774 11.6749 25.2081 11.1664C24.137 10.6579 22.9239 10.4034 21.5679 10.4034C20.5508 10.4034 19.5754 10.568 18.6433 10.8964C17.7104 11.2252 16.8952 11.7019 16.1959 12.3269C15.4966 12.9523 14.9876 13.7095 14.6698 14.5995L17.8803 15.7759C18.1352 15.267 18.453 14.8541 18.8345 14.5358C19.216 14.218 19.6293 13.9852 20.0737 13.8365C20.5189 13.6887 20.9748 13.6143 21.4412 13.6143C22.1609 13.6143 22.7867 13.7524 23.3161 14.0272C23.8454 14.303 24.2539 14.6685 24.5399 15.1239C24.8266 15.5798 24.9695 16.0936 24.9695 16.6659C24.9695 17.6621 24.5455 18.4353 23.6976 18.9863C22.8496 19.5378 21.6103 19.8126 19.9789 19.8126H18.961V22.8643H19.9789C21.2076 22.8643 22.2304 23.013 23.0464 23.3095C23.8618 23.6064 24.4654 24.03 24.8584 24.581C25.2497 25.1325 25.4458 25.7888 25.4458 26.5519C25.4458 27.6118 25.0912 28.4859 24.3813 29.1742C23.6706 29.8632 22.7123 30.2076 21.5041 30.2076C20.7411 30.2076 20.1161 30.0752 19.6293 29.8102C19.1408 29.5455 18.7495 29.2331 18.4529 28.8723C18.1555 28.512 17.9227 28.1841 17.7536 27.8871L14.4475 29.1268C14.744 29.9531 15.231 30.6952 15.9098 31.3517C16.5878 32.0089 17.4244 32.5174 18.421 32.8777C19.4168 33.2376 20.5188 33.4181 21.7271 33.4181C23.0619 33.4181 24.2906 33.1583 25.4147 32.6392C26.5371 32.12 27.4431 31.3733 28.1318 30.3984C28.8204 29.4238 29.1652 28.2683 29.1652 26.9334C29.1652 25.8951 28.9267 24.9625 28.4505 24.1358Z" fill="white"/>
</g>
<defs>
<clipPath id="clip0_77_36">
<rect width="43.613" height="55.0414" fill="white"/>
</clipPath>
</defs>
</svg>
