<svg width="44" height="56" viewBox="0 0 44 56" fill="none" xmlns="http://www.w3.org/2000/svg">
<g clip-path="url(#clip0_77_25)">
<path d="M43.6011 0.406428C43.5628 1.23263 43.6985 24.5758 43.5039 24.537C43.3073 26.6179 42.804 28.6688 42.0133 30.6033C40.426 34.5026 37.659 37.9056 34.1746 40.2669C32.4404 41.4455 30.5248 42.3771 28.4786 43.0109C24.2019 44.7173 10.5346 43.7136 5.89171 43.969C5.88757 45.9466 5.88969 50.8929 5.88926 52.9389H5.89095C5.89264 53.5013 5.89264 54.0626 5.8934 54.6241H5.88926V55.04H0.200759C0.359019 14.6394 -6.14005 -2.96968 43.6011 0.406428Z" fill="#0033A1"/>
<path d="M15.067 33.2265V30.7154C15.067 30.0586 15.2206 29.3753 15.5277 28.6649C15.8349 27.9554 16.2801 27.2505 16.8634 26.5512C17.4458 25.8519 18.1393 25.2057 18.9448 24.6122L23.236 21.4333C23.7449 21.0734 24.2057 20.6547 24.619 20.1777C25.0324 19.701 25.3608 19.2031 25.6043 18.6839C25.8477 18.1648 25.9702 17.6506 25.9702 17.1421C25.9702 16.4641 25.8003 15.8444 25.4613 15.2824C25.1223 14.7212 24.6452 14.2764 24.0309 13.9476C23.4166 13.6192 22.6854 13.4546 21.8375 13.4546C21.032 13.4546 20.3279 13.6085 19.7242 13.9158C19.1197 14.2233 18.6165 14.6309 18.2138 15.1395C17.8111 15.6481 17.5251 16.1884 17.356 16.7606L14.1456 16.1569C14.3784 15.1824 14.8334 14.2707 15.5123 13.4232C16.1903 12.5756 17.0587 11.8923 18.119 11.3727C19.1778 10.8536 20.3753 10.5938 21.711 10.5938C23.2361 10.5938 24.5554 10.8753 25.6681 11.4365C26.7807 11.9981 27.6442 12.7713 28.2593 13.7569C28.8736 14.7421 29.1807 15.8707 29.1807 17.1421C29.1807 18.3716 28.8466 19.5054 28.1792 20.5434C27.5118 21.5821 26.5527 22.5889 25.3029 23.5634L21.3295 26.5513C20.5453 27.1448 19.9252 27.759 19.4694 28.395C19.0135 29.0306 18.7333 29.709 18.6271 30.4291H29.4666V33.2266L15.067 33.2265Z" fill="white"/>
</g>
<defs>
<clipPath id="clip0_77_25">
<rect width="43.6119" height="55.04" fill="white"/>
</clipPath>
</defs>
</svg>
