<svg preserveAspectRatio="none" width="100%" height="100%" overflow="visible" style="display: block;" viewBox="0 0 39.8822 50.2047" fill="none" xmlns="http://www.w3.org/2000/svg">
<g id="ParkCapital_P_icon" clip-path="url(#clip0_0_164)">
<path id="Vector" d="M13.896 26.083V40.0316H8.68312C8.69762 38.577 8.71594 36.5767 8.73277 34.7789C8.74651 33.3382 8.75876 32.0273 8.76642 31.2316L13.896 26.083Z" fill="var(--fill-0, white)"/>
<path id="Vector_2" d="M22.5574 17.3892V39.884C21.764 39.9818 20.956 40.0315 20.136 40.0315H17.3239V22.6418L22.5574 17.3892Z" fill="var(--fill-0, white)"/>
<path id="Vector_3" d="M39.8822 0V20.2858C39.8822 27.0824 36.448 33.0772 31.2198 36.6291V36.6337C29.6269 37.7167 27.8666 38.5728 25.9856 39.1545V13.9478L31.2198 8.69444V29.6353C33.3539 27.113 34.6426 23.8522 34.6487 20.2911V5.2534H20.4333C12.0385 5.2534 5.23349 12.0592 5.23349 20.4532V28.0608C5.23349 28.3397 5.23274 28.6195 5.23274 28.8985C5.23349 30.3248 5.23199 31.7503 5.22966 33.1766C5.23957 36.3593 5.22741 39.5428 5.22741 42.7256V48.274H5.22891C5.23041 48.7907 5.23041 49.3067 5.23116 49.8226H5.22732V50.2047H0V20.4341C0 9.14851 9.14851 0 20.4333 0H39.8822Z" fill="var(--fill-0, #0033A1)"/>
<path id="Vector_4" d="M22.558 17.3892V39.8873C21.7645 39.9851 20.9565 40.0348 20.1361 40.0348H17.3237V22.6425L22.558 17.3892Z" fill="var(--fill-0, #0033A1)"/>
<path id="Vector_5" d="M13.8958 26.0721V40.0315H8.66159C8.67692 38.5708 8.69524 36.5628 8.71207 34.7582C8.72582 33.3388 8.73731 32.0448 8.74497 31.2422L13.8958 26.0721Z" fill="var(--fill-0, #0033A1)"/>
</g>
<defs>
<clipPath id="clip0_0_164">
<rect width="39.8822" height="50.2047" fill="white"/>
</clipPath>
</defs>
</svg>
