<svg preserveAspectRatio="none" width="100%" height="100%" overflow="visible" style="display: block;" viewBox="0 0 33.2802 41.8939" fill="none" xmlns="http://www.w3.org/2000/svg">
<g id="ParkCapital_P_icon" clip-path="url(#clip0_0_312)">
<path id="Vector" d="M11.5956 21.7654V33.4049H7.24573C7.25782 32.1912 7.27312 30.522 7.28716 29.0218C7.29863 27.8196 7.30884 26.7257 7.31524 26.0617L11.5956 21.7654Z" fill="var(--fill-0, white)"/>
<path id="Vector_2" d="M18.8233 14.5103V33.2814C18.1613 33.363 17.4871 33.4045 16.8027 33.4045H14.4562V18.8934L18.8233 14.5103Z" fill="var(--fill-0, white)"/>
<path id="Vector_3" d="M33.2802 0V16.9277C33.2802 22.5992 30.4145 27.6016 26.0518 30.5656V30.5694C24.7225 31.4732 23.2536 32.1875 21.684 32.6729V11.6389L26.0518 7.25518V24.7295C27.8326 22.6248 28.9079 19.9038 28.913 16.9322V4.38376H17.0508C10.0457 4.38376 4.36715 10.0629 4.36715 17.0674V23.4156C4.36715 23.6484 4.36652 23.8819 4.36652 24.1147C4.36715 25.3049 4.3659 26.4944 4.36395 27.6846C4.37222 30.3404 4.36207 32.997 4.36207 35.6529V40.2828H4.36333C4.36458 40.714 4.36458 41.1446 4.3652 41.575H4.362V41.8939H0V17.0515C0 7.63408 7.63408 0 17.0508 0H33.2802Z" fill="var(--fill-0, #0033A1)"/>
<path id="Vector_4" d="M18.8238 14.5103V33.2841C18.1616 33.3658 17.4874 33.4072 16.8028 33.4072H14.456V18.894L18.8238 14.5103Z" fill="var(--fill-0, #0033A1)"/>
<path id="Vector_5" d="M11.5956 21.7561V33.4046H7.2278C7.24059 32.1858 7.25588 30.5102 7.26992 29.0043C7.28139 27.8199 7.29098 26.7401 7.29738 26.0703L11.5956 21.7561Z" fill="var(--fill-0, #0033A1)"/>
</g>
<defs>
<clipPath id="clip0_0_312">
<rect width="33.2802" height="41.8939" fill="white"/>
</clipPath>
</defs>
</svg>
